<?xml version="1.0" encoding="UTF-8"?>
<!DOCTYPE svg PUBLIC "-//W3C//DTD SVG 1.1//EN" "http://www.w3.org/Graphics/SVG/1.1/DTD/svg11.dtd">
<svg xmlns="http://www.w3.org/2000/svg" version="1.1" viewBox="0 0 400 400" width="50" height="50" style="shape-rendering:geometricPrecision; text-rendering:geometricPrecision; image-rendering:optimizeQuality; fill-rule:evenodd; clip-rule:evenodd" xmlns:xlink="http://www.w3.org/1999/xlink">
<g><path fill="#2a616c" d="M 263.5,287.5 C 264.906,287.027 265.573,286.027 265.5,284.5C 276.457,268.868 291.457,262.868 310.5,266.5C 315.501,243.164 320.501,219.831 325.5,196.5C 314.757,195.318 305.924,190.651 299,182.5C 280.583,190.623 262.083,198.623 243.5,206.5C 242.781,243.388 224.115,259.888 187.5,256C 182.642,266.883 177.642,277.716 172.5,288.5C 172.667,289.167 172.833,289.833 173,290.5C 194.368,306.927 198.368,326.927 185,350.5C 169.511,368.398 151.011,372.232 129.5,362C 113.336,351.155 106.836,335.988 110,316.5C 111.3,311.905 113.133,307.572 115.5,303.5C 102.18,286.849 88.5134,270.516 74.5,254.5C 54.689,260.063 38.5223,254.73 26,238.5C 17.5621,223.448 17.3954,208.448 25.5,193.5C 26.9063,193.027 27.573,192.027 27.5,190.5C 37.9699,176.528 51.9699,171.028 69.5,174C 79.9206,176.53 88.2539,182.03 94.5,190.5C 94.427,192.027 95.0937,193.027 96.5,193.5C 104.597,208.447 104.431,223.447 96,238.5C 92.312,243.688 87.812,248.022 82.5,251.5C 94.8108,266.978 107.311,282.312 120,297.5C 133.02,285.295 148.187,281.461 165.5,286C 171.119,274.98 176.452,263.813 181.5,252.5C 158.456,236.845 153.289,216.512 166,191.5C 168.674,187.66 171.841,184.327 175.5,181.5C 166.869,166.066 157.702,151.066 148,136.5C 121.348,145.833 102.014,137.833 90,112.5C 83.8387,85.6643 93.672,67.4976 119.5,58C 139.57,54.0376 155.07,60.5376 166,77.5C 168.534,83.0795 170.367,88.9128 171.5,95C 171.905,95.9454 172.572,96.6121 173.5,97C 212.89,110.186 252.224,123.686 291.5,137.5C 308.146,111.454 329.813,106.287 356.5,122C 370.448,134.729 374.948,150.229 370,168.5C 363.052,185.283 350.552,194.616 332.5,196.5C 327.618,220.409 322.284,244.242 316.5,268C 342.358,283.918 348.191,305.418 334,332.5C 317.837,350.277 299.004,353.777 277.5,343C 258.182,328.254 253.515,309.754 263.5,287.5 Z M 127.5,63.5 C 140.598,63.7745 151.098,69.1079 159,79.5C 168.798,99.2301 164.965,115.73 147.5,129C 128.564,137.683 112.731,133.85 100,117.5C 90.037,96.3913 94.8704,79.558 114.5,67C 118.86,65.4171 123.194,64.2505 127.5,63.5 Z M 236.5,193.5 C 236.573,191.973 235.906,190.973 234.5,190.5C 224.03,176.528 210.03,171.028 192.5,174C 189.051,174.862 185.717,176.028 182.5,177.5C 172.88,163.102 163.88,148.269 155.5,133C 159.368,128.797 162.868,124.297 166,119.5C 168.411,114.261 170.411,108.928 172,103.5C 210.852,116.671 249.685,130.004 288.5,143.5C 288.603,149.425 288.77,155.425 289,161.5C 289.845,167.035 291.678,172.202 294.5,177C 276.887,184.927 259.053,192.427 241,199.5C 239.245,197.642 237.745,195.642 236.5,193.5 Z M 300.5,173.5 C 300.573,171.973 299.906,170.973 298.5,170.5C 290.917,146.836 298.584,130.336 321.5,121C 344.763,118.04 359.263,127.874 365,150.5C 365.618,169.876 356.785,182.709 338.5,189C 322.447,191.714 309.78,186.547 300.5,173.5 Z M 78.5,184.5 C 78.9731,185.906 79.9731,186.573 81.5,186.5C 97.6589,201.599 99.8256,218.599 88,237.5C 74.6858,250.567 59.5192,253.067 42.5,245C 27.134,233.562 22.634,218.729 29,200.5C 40.8833,181.262 57.3833,175.929 78.5,184.5 Z M 218.5,184.5 C 218.973,185.906 219.973,186.573 221.5,186.5C 236.478,199.566 239.645,215.233 231,233.5C 218.053,250.376 201.886,254.209 182.5,245C 165.752,232.402 161.919,216.569 171,197.5C 183.176,180.505 199.01,176.171 218.5,184.5 Z M 294.5,272.5 C 318.268,272.264 331.934,283.931 335.5,307.5C 332.708,328.459 320.875,340.126 300,342.5C 279.107,340.108 267.274,328.441 264.5,307.5C 266.692,288.985 276.692,277.318 294.5,272.5 Z M 148.5,290.5 C 170.858,292.026 183.191,303.86 185.5,326C 183.537,346.965 172.037,358.798 151,361.5C 129.822,358.989 117.989,347.155 115.5,326C 117.758,305.912 128.758,294.079 148.5,290.5 Z"/></g>
<g><path fill="#8eadb3" d="M 298.5,170.5 C 299.906,170.973 300.573,171.973 300.5,173.5C 299.094,173.027 298.427,172.027 298.5,170.5 Z"/></g>
<g><path fill="#8eadb3" d="M 78.5,184.5 C 80.0269,184.427 81.0269,185.094 81.5,186.5C 79.9731,186.573 78.9731,185.906 78.5,184.5 Z"/></g>
<g><path fill="#8eadb3" d="M 218.5,184.5 C 220.027,184.427 221.027,185.094 221.5,186.5C 219.973,186.573 218.973,185.906 218.5,184.5 Z"/></g>
<g><path fill="#8eadb3" d="M 27.5,190.5 C 27.573,192.027 26.9063,193.027 25.5,193.5C 25.427,191.973 26.0937,190.973 27.5,190.5 Z"/></g>
<g><path fill="#8eadb3" d="M 94.5,190.5 C 95.9063,190.973 96.573,191.973 96.5,193.5C 95.0937,193.027 94.427,192.027 94.5,190.5 Z"/></g>
<g><path fill="#8eadb3" d="M 234.5,190.5 C 235.906,190.973 236.573,191.973 236.5,193.5C 235.094,193.027 234.427,192.027 234.5,190.5 Z"/></g>
<g><path fill="#8eadb3" d="M 265.5,284.5 C 265.573,286.027 264.906,287.027 263.5,287.5C 263.427,285.973 264.094,284.973 265.5,284.5 Z"/></g>
</svg>
